# xmcd
#
# Track frame offsets:
#	150
#	12425
#	25300
#	36182
#	46977
#	56907
#	75217
#	86375
#	95615
#	108755
#	125470
#	139102
#	151880
#	161662
#	174930
#	190567
#	204275
#	217260
#	232017
#	242952
#
# Disc length: 3394 seconds
#
# Revision: 1
# Processed by: cddbd v1.4PL0 Copyright (c) Steve Scherf et al.
# Submitted via: dBpowerAMP V4.0
#
DISCID=030d4014
DTITLE=Various Artist - The Very Best Of Country Music
DYEAR=1900
DGENRE=Country
TTITLE0=Dolly Parton and 9 To 5
TTITLE1=Jim Reeves and Distant Drums
TTITLE2=Everly Brothers and ('Til) I Kissed You
TTITLE3=Patsy Cline and Crazy Arms
TTITLE4=Don Gibson and Funny, Familiar, Forgotten Feelings
TTITLE5=Don Williams and I Believe In You
TTITLE6=Waylon Jennings and Sally Was An Old Girl
TTITLE7=Loretta Lynn and Back In Baby's Arms
TTITLE8=Bellamy Brothers and Slippin' Away
TTITLE9=Alabama and Take Me Down
TTITLE10=Willie Nelson and Both Sides Now
TTITLE11=Conway Twitty and Next In Line
TTITLE12=Eddy Arnold and I Wanna Play House With You
TTITLE13=Desert Rose Band and Love Reunited
TTITLE14=Merle Haggard and When It Rains It Pours
TTITLE15=Marty Robbins and Twentieth Century Drifter
TTITLE16=Bill Anderson and Mary Lou Turner and Sometimes
TTITLE17=Oak Ridge Boys and Ozark Mountain Jubilee
TTITLE18=Hank Snow and Let Me Go Lover
TTITLE19=Hank Williams Jr and Dixie On My Mind
EXTD=
EXTT0=
EXTT1=
EXTT2=
EXTT3=
EXTT4=
EXTT5=
EXTT6=
EXTT7=
EXTT8=
EXTT9=
EXTT10=
EXTT11=
EXTT12=
EXTT13=
EXTT14=
EXTT15=
EXTT16=
EXTT17=
EXTT18=
EXTT19=
PLAYORDER=
